<svg width="288" height="264" viewBox="0 0 288 264" fill="none" xmlns="http://www.w3.org/2000/svg">
<path d="M40.1912 263.222L47.7314 260.549L45.0586 253.009L37.5183 255.682L40.1912 263.222ZM55.2717 257.876L62.812 255.204L60.1392 247.663L52.5989 250.336L55.2717 257.876ZM70.3523 252.531L77.8917 249.858L75.2189 242.318L67.6795 244.99L70.3523 252.531ZM85.4329 247.185L92.9732 244.512L90.3004 236.972L82.7601 239.645L85.4329 247.185ZM100.513 241.839L108.054 239.167L105.381 231.626L97.8407 234.299L100.513 241.839ZM34.8455 248.141L42.3858 245.469L39.713 237.928L32.1727 240.601L34.8455 248.141ZM47.2533 235.255L49.9261 242.796L42.3858 245.469L45.0586 253.009L52.5989 250.336L49.9261 242.796L57.4664 240.123L54.7936 232.583L47.2533 235.255ZM62.3339 229.91L65.0067 237.45L57.4664 240.123L60.1392 247.663L67.6795 244.99L65.0067 237.45L72.547 234.777L69.8741 227.237L62.3339 229.91ZM77.4144 224.564L80.0873 232.104L72.547 234.777L75.2189 242.318L82.7601 239.645L80.0873 232.104L87.6276 229.432L84.9547 221.891L77.4144 224.564ZM92.495 219.219L95.1679 226.759L87.6276 229.432L90.3004 236.972L97.8407 234.299L95.1679 226.759L102.708 224.086L100.035 216.546L92.495 219.219ZM29.4999 233.061L37.0402 230.388L34.3677 222.849L26.8274 225.521L29.4999 233.061ZM41.9076 220.175L44.5804 227.715L37.0402 230.388L39.713 237.928L47.2533 235.255L44.5804 227.715L52.1207 225.042L49.4479 217.502L41.9076 220.175ZM56.9882 214.829L59.661 222.37L52.1207 225.042L54.7936 232.583L62.3339 229.91L59.661 222.37L67.2013 219.697L64.5285 212.156L56.9882 214.829ZM72.0688 209.484L74.7416 217.024L67.2013 219.697L69.8741 227.237L77.4144 224.564L74.7416 217.024L82.2819 214.351L79.6091 206.811L72.0688 209.484ZM87.1494 204.138L89.8222 211.678L82.2819 214.351L84.9547 221.891L92.495 219.219L89.8222 211.678L97.3625 209.005L94.6897 201.465L87.1494 204.138ZM24.1542 217.98L31.6945 215.307L29.0217 207.767L21.4814 210.44L24.1542 217.98ZM36.562 205.094L39.2348 212.635L31.6945 215.307L34.3677 222.849L41.9076 220.175L39.2348 212.635L46.7751 209.962L44.1023 202.421L36.562 205.094ZM51.6426 199.749L54.3154 207.289L46.7751 209.962L49.4479 217.502L56.9882 214.829L54.3154 207.289L61.8557 204.616L59.1829 197.076L51.6426 199.749ZM66.7231 194.403L69.396 201.943L61.8557 204.616L64.5285 212.156L72.0688 209.484L69.396 201.943L76.9363 199.27L74.2634 191.73L66.7231 194.403ZM81.8037 189.057L84.4766 196.598L76.9363 199.27L79.6091 206.811L87.1494 204.138L84.4766 196.598L92.0168 193.925L89.344 186.385L81.8037 189.057ZM18.8086 202.9L26.3489 200.227L23.676 192.687L16.1357 195.359L18.8086 202.9ZM31.2163 190.014L33.8892 197.554L26.3489 200.227L29.0217 207.767L36.562 205.094L33.8892 197.554L41.4294 194.881L38.7566 187.341L31.2163 190.014ZM46.2969 184.668L48.9697 192.208L41.4294 194.881L44.1023 202.421L51.6426 199.749L48.9697 192.208L56.51 189.536L53.8372 181.995L46.2969 184.668ZM61.3775 179.322L64.0503 186.863L56.51 189.536L59.1829 197.076L66.7231 194.403L64.0503 186.863L71.5906 184.19L68.9178 176.65L61.3775 179.322ZM76.4581 173.977L79.1309 181.517L71.5906 184.19L74.2634 191.73L81.8037 189.057L79.1309 181.517L86.6712 178.844L83.9984 171.304L76.4581 173.977Z" fill="#424E57"/>
<path d="M205.607 238.607C179.407 268.519 133.918 271.529 104.006 245.329L151.446 191.167L205.607 238.607Z" fill="#424E57"/>
<path d="M132.16 173.25L139.543 179.658L138.568 165.867L132.16 173.25ZM145.984 157.324L148.086 187.074L156.63 194.491L153.401 148.78L145.984 157.324ZM160.817 140.236L165.173 201.906L173.718 209.323L168.234 131.692L160.817 140.236ZM179.357 118.877L175.649 123.149L182.26 216.738L186.533 220.447L190.241 216.175L183.629 122.585L179.357 118.877ZM192.173 130.001L197.657 207.632L205.074 199.088L200.717 137.418L192.173 130.001ZM209.26 144.833L212.49 190.544L219.906 182L217.804 152.25L209.26 144.833ZM226.348 159.666L227.322 173.457L233.73 166.074L226.348 159.666Z" fill="#FF6157"/>
<path d="M213.344 207.055C244.272 207.053 269.345 232.124 269.347 263.052L261.347 263.052C261.345 236.542 239.854 215.053 213.344 215.055L213.344 207.055ZM253.347 263.053C253.345 240.962 235.435 223.054 213.344 223.055L213.345 231.055C231.018 231.054 245.346 245.38 245.347 263.053L253.347 263.053ZM237.347 263.054C237.346 249.799 226.6 239.054 213.345 239.055L213.346 247.055C222.183 247.054 229.346 254.217 229.347 263.054L237.347 263.054ZM221.347 263.054C221.346 258.636 217.764 255.055 213.346 255.055L213.347 263.055L221.347 263.054ZM277.347 263.052L285.347 263.051C285.344 223.286 253.108 191.053 213.343 191.055L213.343 199.055C248.689 199.053 277.345 227.706 277.347 263.052Z" fill="white"/>
</svg>
