<svg width="128" height="128" viewBox="0 0 128 128" fill="none" xmlns="http://www.w3.org/2000/svg">
<g clip-path="url(#clip0_1_721)">
<path d="M76.0983 20.0441L84.1344 20.063L84.0335 57.672C84.0161 66.4765 80.7662 74.9681 74.9007 81.5345C75.6183 78.434 75.9841 75.2626 75.9911 72.0802L76.0983 20.0441Z" fill="white"/>
<path d="M50.2567 85.6313C48.2664 88.083 45.7608 90.0666 42.9178 91.4412C40.0748 92.8159 36.964 93.548 33.8063 93.5855L36.2266 85.5935L50.2567 85.6313Z" fill="white"/>
<path d="M55.1729 71.2356V72.0361C55.1679 74.4898 54.7415 76.9245 53.9123 79.2339L38.1553 79.1898L40.563 71.1915L55.1729 71.2356Z" fill="white"/>
<path d="M90.538 20.0819H98.5426L98.4796 43.3204C98.4588 52.1266 95.2042 60.6185 89.3342 67.1829C90.0518 64.0825 90.4176 60.9111 90.4246 57.7287L90.538 20.0819Z" fill="white"/>
<path d="M69.7198 20L69.5812 72.055C69.5461 81.6063 65.723 90.7535 58.9509 97.4889C52.1788 104.224 43.011 107.998 33.4597 107.981H29.4574L31.8714 99.9828H33.4786C40.9102 100.001 48.0456 97.0701 53.3182 91.8329C58.5909 86.5957 61.5701 79.4803 61.6018 72.0487L61.7089 20H69.7198Z" fill="white"/>
</g>
<defs>
<clipPath id="clip0_1_721">
<rect width="69.0852" height="88" fill="white" transform="translate(29.4574 20)"/>
</clipPath>
</defs>
</svg>
